<mxfile host="app.diagrams.net" modified="2021-03-11T16:21:21.529Z" agent="5.0 (X11)" etag="nfkbCiVn_teFRrajL5N3" version="14.4.7" type="github">
  <diagram id="OqSoWsy9WN5iQrvl1fk3" name="Page-1">
    <mxGraphModel dx="801" dy="487" grid="1" gridSize="10" guides="1" tooltips="1" connect="1" arrows="1" fold="1" page="1" pageScale="1" pageWidth="850" pageHeight="1100" math="0" shadow="0">
      <root>
        <mxCell id="0" />
        <mxCell id="1" parent="0" />
        <mxCell id="8x7_KLHhIjP_u6BnP_I0-1" value="" style="shape=mxgraph.pid.vessels.container,_tank,_cistern;html=1;pointerEvents=1;align=center;verticalLabelPosition=bottom;verticalAlign=top;dashed=0;" vertex="1" parent="1">
          <mxGeometry x="90" y="140" width="80" height="160" as="geometry" />
        </mxCell>
        <mxCell id="8x7_KLHhIjP_u6BnP_I0-5" value="" style="verticalLabelPosition=bottom;align=center;html=1;verticalAlign=top;pointerEvents=1;dashed=0;shape=mxgraph.pid2valves.valve;valveType=gate;actuator=man" vertex="1" parent="1">
          <mxGeometry x="190" y="260" width="50" height="30" as="geometry" />
        </mxCell>
        <mxCell id="8x7_KLHhIjP_u6BnP_I0-8" value="" style="verticalLabelPosition=bottom;align=center;html=1;verticalAlign=top;pointerEvents=1;dashed=0;shape=mxgraph.pid2valves.valve;valveType=gate;actuator=man;rotation=90;" vertex="1" parent="1">
          <mxGeometry x="105" y="330" width="50" height="30" as="geometry" />
        </mxCell>
        <mxCell id="8x7_KLHhIjP_u6BnP_I0-12" value="" style="endArrow=none;html=1;exitX=0.02;exitY=0.667;exitDx=0;exitDy=0;exitPerimeter=0;entryX=0.413;entryY=1.006;entryDx=0;entryDy=0;entryPerimeter=0;" edge="1" parent="1" source="8x7_KLHhIjP_u6BnP_I0-8" target="8x7_KLHhIjP_u6BnP_I0-1">
          <mxGeometry width="50" height="50" relative="1" as="geometry">
            <mxPoint x="30" y="450" as="sourcePoint" />
            <mxPoint x="80" y="310" as="targetPoint" />
          </mxGeometry>
        </mxCell>
        <mxCell id="8x7_KLHhIjP_u6BnP_I0-13" value="" style="endArrow=none;html=1;exitX=1.038;exitY=0.875;exitDx=0;exitDy=0;exitPerimeter=0;" edge="1" parent="1" source="8x7_KLHhIjP_u6BnP_I0-1">
          <mxGeometry width="50" height="50" relative="1" as="geometry">
            <mxPoint x="400" y="270" as="sourcePoint" />
            <mxPoint x="190" y="280" as="targetPoint" />
          </mxGeometry>
        </mxCell>
        <mxCell id="8x7_KLHhIjP_u6BnP_I0-14" value="" style="shape=mxgraph.pid.vessels.container,_tank,_cistern;html=1;pointerEvents=1;align=center;verticalLabelPosition=bottom;verticalAlign=top;dashed=0;" vertex="1" parent="1">
          <mxGeometry x="285" y="140" width="80" height="160" as="geometry" />
        </mxCell>
        <mxCell id="8x7_KLHhIjP_u6BnP_I0-15" value="" style="verticalLabelPosition=bottom;align=center;html=1;verticalAlign=top;pointerEvents=1;dashed=0;shape=mxgraph.pid2valves.valve;valveType=gate;actuator=man" vertex="1" parent="1">
          <mxGeometry x="385" y="260" width="50" height="30" as="geometry" />
        </mxCell>
        <mxCell id="8x7_KLHhIjP_u6BnP_I0-16" value="" style="verticalLabelPosition=bottom;align=center;html=1;verticalAlign=top;pointerEvents=1;dashed=0;shape=mxgraph.pid2valves.valve;valveType=gate;actuator=man;rotation=90;" vertex="1" parent="1">
          <mxGeometry x="300" y="330" width="50" height="30" as="geometry" />
        </mxCell>
        <mxCell id="8x7_KLHhIjP_u6BnP_I0-17" value="" style="endArrow=none;html=1;exitX=0.02;exitY=0.667;exitDx=0;exitDy=0;exitPerimeter=0;entryX=0.413;entryY=1.006;entryDx=0;entryDy=0;entryPerimeter=0;" edge="1" parent="1" source="8x7_KLHhIjP_u6BnP_I0-16" target="8x7_KLHhIjP_u6BnP_I0-14">
          <mxGeometry width="50" height="50" relative="1" as="geometry">
            <mxPoint x="225" y="450" as="sourcePoint" />
            <mxPoint x="275" y="310" as="targetPoint" />
          </mxGeometry>
        </mxCell>
        <mxCell id="8x7_KLHhIjP_u6BnP_I0-18" value="" style="endArrow=none;html=1;exitX=1.038;exitY=0.875;exitDx=0;exitDy=0;exitPerimeter=0;" edge="1" parent="1" source="8x7_KLHhIjP_u6BnP_I0-14">
          <mxGeometry width="50" height="50" relative="1" as="geometry">
            <mxPoint x="595" y="270" as="sourcePoint" />
            <mxPoint x="385" y="280" as="targetPoint" />
          </mxGeometry>
        </mxCell>
        <mxCell id="8x7_KLHhIjP_u6BnP_I0-19" value="" style="shape=mxgraph.pid.vessels.container,_tank,_cistern;html=1;pointerEvents=1;align=center;verticalLabelPosition=bottom;verticalAlign=top;dashed=0;" vertex="1" parent="1">
          <mxGeometry x="490" y="140" width="80" height="160" as="geometry" />
        </mxCell>
        <mxCell id="8x7_KLHhIjP_u6BnP_I0-20" value="" style="verticalLabelPosition=bottom;align=center;html=1;verticalAlign=top;pointerEvents=1;dashed=0;shape=mxgraph.pid2valves.valve;valveType=gate;actuator=man" vertex="1" parent="1">
          <mxGeometry x="590" y="260" width="50" height="30" as="geometry" />
        </mxCell>
        <mxCell id="8x7_KLHhIjP_u6BnP_I0-21" value="" style="verticalLabelPosition=bottom;align=center;html=1;verticalAlign=top;pointerEvents=1;dashed=0;shape=mxgraph.pid2valves.valve;valveType=gate;actuator=man;rotation=90;" vertex="1" parent="1">
          <mxGeometry x="505" y="330" width="50" height="30" as="geometry" />
        </mxCell>
        <mxCell id="8x7_KLHhIjP_u6BnP_I0-22" value="" style="endArrow=none;html=1;exitX=0.02;exitY=0.667;exitDx=0;exitDy=0;exitPerimeter=0;entryX=0.413;entryY=1.006;entryDx=0;entryDy=0;entryPerimeter=0;" edge="1" parent="1" source="8x7_KLHhIjP_u6BnP_I0-21" target="8x7_KLHhIjP_u6BnP_I0-19">
          <mxGeometry width="50" height="50" relative="1" as="geometry">
            <mxPoint x="430" y="450" as="sourcePoint" />
            <mxPoint x="480" y="310" as="targetPoint" />
          </mxGeometry>
        </mxCell>
        <mxCell id="8x7_KLHhIjP_u6BnP_I0-23" value="" style="endArrow=none;html=1;exitX=1.038;exitY=0.875;exitDx=0;exitDy=0;exitPerimeter=0;" edge="1" parent="1" source="8x7_KLHhIjP_u6BnP_I0-19">
          <mxGeometry width="50" height="50" relative="1" as="geometry">
            <mxPoint x="800" y="270" as="sourcePoint" />
            <mxPoint x="590" y="280" as="targetPoint" />
          </mxGeometry>
        </mxCell>
        <mxCell id="8x7_KLHhIjP_u6BnP_I0-24" value="" style="endArrow=none;html=1;exitX=1.04;exitY=0.7;exitDx=0;exitDy=0;exitPerimeter=0;entryX=0.013;entryY=0.894;entryDx=0;entryDy=0;entryPerimeter=0;" edge="1" parent="1" source="8x7_KLHhIjP_u6BnP_I0-5" target="8x7_KLHhIjP_u6BnP_I0-14">
          <mxGeometry width="50" height="50" relative="1" as="geometry">
            <mxPoint x="400" y="270" as="sourcePoint" />
            <mxPoint x="450" y="220" as="targetPoint" />
          </mxGeometry>
        </mxCell>
        <mxCell id="8x7_KLHhIjP_u6BnP_I0-25" value="" style="endArrow=none;html=1;exitX=1;exitY=0.7;exitDx=0;exitDy=0;exitPerimeter=0;entryX=-0.025;entryY=0.869;entryDx=0;entryDy=0;entryPerimeter=0;" edge="1" parent="1" source="8x7_KLHhIjP_u6BnP_I0-15" target="8x7_KLHhIjP_u6BnP_I0-19">
          <mxGeometry width="50" height="50" relative="1" as="geometry">
            <mxPoint x="460" y="300" as="sourcePoint" />
            <mxPoint x="510" y="250" as="targetPoint" />
          </mxGeometry>
        </mxCell>
        <mxCell id="8x7_KLHhIjP_u6BnP_I0-26" value="" style="endArrow=none;dashed=1;html=1;" edge="1" parent="1">
          <mxGeometry width="50" height="50" relative="1" as="geometry">
            <mxPoint x="50" y="280" as="sourcePoint" />
            <mxPoint x="690" y="280" as="targetPoint" />
          </mxGeometry>
        </mxCell>
        <mxCell id="8x7_KLHhIjP_u6BnP_I0-28" value="" style="shape=mxgraph.pid.pumps.centrifugal_pump_1;html=1;pointerEvents=1;align=center;verticalLabelPosition=bottom;verticalAlign=top;dashed=0;" vertex="1" parent="1">
          <mxGeometry x="10" y="50" width="70" height="67" as="geometry" />
        </mxCell>
        <mxCell id="8x7_KLHhIjP_u6BnP_I0-29" value="" style="shape=mxgraph.pid.pumps.centrifugal_pump_3;html=1;pointerEvents=1;align=center;verticalLabelPosition=bottom;verticalAlign=top;dashed=0;" vertex="1" parent="1">
          <mxGeometry x="590" y="50" width="70" height="67" as="geometry" />
        </mxCell>
        <mxCell id="8x7_KLHhIjP_u6BnP_I0-30" value="" style="endArrow=none;html=1;exitX=1.029;exitY=0.164;exitDx=0;exitDy=0;exitPerimeter=0;edgeStyle=orthogonalEdgeStyle;" edge="1" parent="1" source="8x7_KLHhIjP_u6BnP_I0-28" target="8x7_KLHhIjP_u6BnP_I0-1">
          <mxGeometry width="50" height="50" relative="1" as="geometry">
            <mxPoint x="390" y="190" as="sourcePoint" />
            <mxPoint x="130" y="61" as="targetPoint" />
          </mxGeometry>
        </mxCell>
        <mxCell id="8x7_KLHhIjP_u6BnP_I0-31" value="" style="endArrow=none;html=1;edgeStyle=orthogonalEdgeStyle;entryX=-0.014;entryY=0.149;entryDx=0;entryDy=0;entryPerimeter=0;exitX=0.5;exitY=-0.006;exitDx=0;exitDy=0;exitPerimeter=0;" edge="1" parent="1" source="8x7_KLHhIjP_u6BnP_I0-19" target="8x7_KLHhIjP_u6BnP_I0-29">
          <mxGeometry width="50" height="50" relative="1" as="geometry">
            <mxPoint x="390" y="190" as="sourcePoint" />
            <mxPoint x="440" y="140" as="targetPoint" />
          </mxGeometry>
        </mxCell>
        <mxCell id="8x7_KLHhIjP_u6BnP_I0-32" value="" style="shape=mxgraph.pid.vessels.container,_tank,_cistern;html=1;pointerEvents=1;align=center;verticalLabelPosition=bottom;verticalAlign=top;dashed=0;" vertex="1" parent="1">
          <mxGeometry x="80" y="390" width="550" height="50" as="geometry" />
        </mxCell>
        <mxCell id="8x7_KLHhIjP_u6BnP_I0-33" value="T1" style="text;html=1;strokeColor=none;fillColor=none;align=center;verticalAlign=middle;whiteSpace=wrap;rounded=0;" vertex="1" parent="1">
          <mxGeometry x="180" y="160" width="40" height="20" as="geometry" />
        </mxCell>
        <mxCell id="8x7_KLHhIjP_u6BnP_I0-35" value="T2" style="text;html=1;strokeColor=none;fillColor=none;align=center;verticalAlign=middle;whiteSpace=wrap;rounded=0;" vertex="1" parent="1">
          <mxGeometry x="370" y="160" width="40" height="20" as="geometry" />
        </mxCell>
        <mxCell id="8x7_KLHhIjP_u6BnP_I0-36" value="T3" style="text;html=1;strokeColor=none;fillColor=none;align=center;verticalAlign=middle;whiteSpace=wrap;rounded=0;" vertex="1" parent="1">
          <mxGeometry x="580" y="160" width="40" height="20" as="geometry" />
        </mxCell>
      </root>
    </mxGraphModel>
  </diagram>
</mxfile>
